<svg viewBox="0 0 2193 635" fill="none" xmlns="http://www.w3.org/2000/svg"><title>Appendix B</title><path d="M.155 471.493c0 1.19.395 2.379 1.185 3.568.79.793 1.776 1.189 2.96 1.189H78.32c.79 0 1.579-.396 2.368-1.189.79-1.189 1.184-2.378 1.184-3.568v-3.567c0-1.982-.394-3.369-1.184-4.162-.79-1.189-1.579-1.784-2.368-1.784H70.62c-2.764-.396-5.33-.792-7.698-1.189-2.369-.793-4.343-2.18-5.922-4.162-1.184-1.982-1.381-4.756-.592-8.324 1.184-6.738 2.961-16.053 5.33-27.945 2.763-11.891 5.921-24.773 9.474-38.647a1119.562 1119.562 0 0 0 11.25-42.809 6682.346 6682.346 0 0 1 10.067-41.025h95.336l24.278 99.293a1727.15 1727.15 0 0 1 4.737 20.81c1.974 7.135 2.961 14.468 2.961 21.999 0 5.55-.987 9.91-2.961 13.081-1.579 2.774-3.553 4.955-5.921 6.54-2.369 1.189-4.738 1.784-7.106 1.784h-7.106c-1.184 0-2.171.594-2.961 1.783-.789 1.19-1.184 2.379-1.184 3.568v4.756c0 1.19.395 2.379 1.184 3.568 1.185.793 2.172 1.189 2.961 1.189h98.296c1.185 0 2.172-.396 2.961-1.189.79-1.189 1.184-2.378 1.184-3.568v-4.162c0-1.189-.394-2.378-1.184-3.567-.789-1.189-1.579-1.784-2.368-1.784a341.422 341.422 0 0 0-7.698-1.189c-2.369-.396-4.343-.991-5.922-1.784-7.895-3.567-14.014-9.909-18.356-19.026-4.343-9.116-7.698-18.431-10.067-27.945l-92.967-385.28c-.395-1.586-1.184-2.775-2.369-3.568-1.184-1.189-2.368-1.784-3.552-1.784h-10.067c-1.579 0-2.961.595-4.145 1.784-.789.793-1.184 1.982-1.184 3.568-4.737 18.233-10.067 39.241-15.988 63.024a10942.891 10942.891 0 0 1-18.949 74.916 7567.521 7567.521 0 0 0-20.133 79.077 21624.825 21624.825 0 0 1-19.54 77.889c-5.922 24.972-11.844 48.358-17.765 70.159-5.922 21.405-10.659 39.836-14.212 55.295-2.368 7.135-5.921 11.297-10.658 12.486-4.738 1.189-8.883 1.784-12.435 1.784H4.892c-1.579 0-2.763.594-3.552 1.783-.79.793-1.185 1.784-1.185 2.973v5.351ZM97.267 275.88l44.411-170.047 41.451 170.047H97.267Z" fill="currentColor"/><path d="M282.944 156.372c-1.184.396-2.171.991-2.961 1.783-.395.793-.592 1.982-.592 3.568v8.918c0 1.19.197 2.18.592 2.973.79.793 1.777 1.189 2.961 1.189 8.685-.396 15.001 1.784 18.949 6.541 4.342 4.36 7.105 9.909 8.29 16.648 1.184 6.738 1.579 14.071 1.184 21.999V326.419c0 27.35-.197 54.502-.592 81.456v168.263c0 5.153-.198 9.909-.592 14.269-.395 4.36-1.382 8.919-2.961 13.675-3.158 7.532-7.303 12.09-12.435 13.675-4.737 1.586-8.685 2.577-11.843 2.973-1.184 0-2.171.397-2.961 1.189-.395 1.19-.592 2.577-.592 4.162v4.162c0 1.586.197 2.775.592 3.568.79.793 1.777 1.189 2.961 1.189h92.375c.789 0 1.579-.396 2.368-1.189.79-.793 1.185-1.982 1.185-3.568v-5.945c0-1.586-.395-2.973-1.185-4.162-.394-.793-1.184-1.189-2.368-1.189-2.369 0-5.132-.199-8.29-.595-3.158 0-6.316-1.387-9.475-4.162-2.763-2.378-5.131-6.54-7.105-12.486-1.974-5.549-2.961-14.071-2.961-25.566v-124.86c6.711 9.91 15.198 17.639 25.462 23.188 10.264 5.55 23.094 8.324 38.49 8.324 16.58 0 31.186-3.964 43.819-11.891 12.632-8.324 23.291-19.621 31.976-33.891 8.684-14.269 15.395-31.314 20.133-51.133 4.737-19.819 7.303-41.619 7.698-65.402 0-22.594-1.974-44.197-5.922-64.808-3.948-20.612-10.264-38.449-18.949-53.511-8.29-15.459-19.146-27.351-32.568-35.675-13.422-8.72-29.41-12.287-47.964-10.702-14.606 1.189-26.646 5.748-36.121 13.675-9.079 7.531-17.172 17.045-24.278 28.54v-9.514a86.057 86.057 0 0 0 0-14.269c-.394-4.757-1.184-8.919-2.368-12.486-1.184-3.568-2.961-5.351-5.33-5.351h-58.622Zm122.574 18.431c12.633-1.189 23.291 1.189 31.976 7.135 9.08 5.946 16.58 14.864 22.502 26.756 5.921 11.891 10.264 26.755 13.027 44.593 2.763 17.837 3.948 38.052 3.553 60.646l1.184 10.702c0 22.197-1.974 42.016-5.921 59.457-3.553 17.44-8.685 32.106-15.396 43.998-6.316 11.891-13.422 21.008-21.317 27.35-7.896 5.946-16.383 8.919-25.463 8.919-6.711 0-13.619-1.982-20.725-5.946-7.106-4.36-13.817-10.306-20.133-17.837-5.921-7.531-10.856-16.45-14.803-26.756-3.948-10.702-5.922-22.593-5.922-35.674l-.592-107.617a113.89 113.89 0 0 1 3.553-32.701c3.158-11.099 7.303-21.207 12.435-30.323 5.527-9.117 11.645-16.45 18.356-21.999 7.106-5.946 15.002-9.514 23.686-10.703ZM521.769 156.372c-1.184.396-2.171.991-2.961 1.783-.395.793-.592 1.982-.592 3.568v8.918c0 1.19.197 2.18.592 2.973.79.793 1.777 1.189 2.961 1.189 8.685-.396 15.001 1.784 18.949 6.541 4.342 4.36 7.105 9.909 8.29 16.648 1.184 6.738 1.579 14.071 1.184 21.999V326.419c0 27.35-.198 54.502-.592 81.456v168.263c0 5.153-.198 9.909-.592 14.269-.395 4.36-1.382 8.919-2.961 13.675-3.158 7.532-7.303 12.09-12.435 13.675-4.737 1.586-8.685 2.577-11.843 2.973-1.184 0-2.171.397-2.961 1.189-.395 1.19-.592 2.577-.592 4.162v4.162c0 1.586.197 2.775.592 3.568.79.793 1.777 1.189 2.961 1.189h92.375c.789 0 1.579-.396 2.368-1.189.79-.793 1.185-1.982 1.185-3.568v-5.945c0-1.586-.395-2.973-1.185-4.162-.394-.793-1.184-1.189-2.368-1.189-2.369 0-5.132-.199-8.29-.595-3.158 0-6.317-1.387-9.475-4.162-2.763-2.378-5.132-6.54-7.105-12.486-1.974-5.549-2.961-14.071-2.961-25.566v-124.86c6.711 9.91 15.198 17.639 25.462 23.188 10.264 5.55 23.094 8.324 38.49 8.324 16.58 0 31.186-3.964 43.819-11.891 12.632-8.324 23.291-19.621 31.976-33.891 8.684-14.269 15.395-31.314 20.133-51.133 4.737-19.819 7.303-41.619 7.697-65.402 0-22.594-1.973-44.197-5.921-64.808-3.948-20.612-10.264-38.449-18.949-53.511-8.29-15.459-19.146-27.351-32.568-35.675-13.422-8.72-29.41-12.287-47.964-10.702-14.606 1.189-26.646 5.748-36.121 13.675-9.079 7.531-17.172 17.045-24.278 28.54v-9.514a86.057 86.057 0 0 0 0-14.269c-.394-4.757-1.184-8.919-2.368-12.486-1.185-3.568-2.961-5.351-5.33-5.351h-58.622Zm122.574 18.431c12.633-1.189 23.291 1.189 31.976 7.135 9.08 5.946 16.58 14.864 22.502 26.756 5.921 11.891 10.264 26.755 13.027 44.593 2.763 17.837 3.948 38.052 3.553 60.646l1.184 10.702c0 22.197-1.974 42.016-5.921 59.457-3.553 17.44-8.685 32.106-15.396 43.998-6.316 11.891-13.422 21.008-21.317 27.35-7.896 5.946-16.383 8.919-25.463 8.919-6.711 0-13.619-1.982-20.725-5.946-7.106-4.36-13.817-10.306-20.133-17.837-5.921-7.531-10.856-16.45-14.804-26.756-3.947-10.702-5.921-22.593-5.921-35.674l-.592-107.617a113.89 113.89 0 0 1 3.553-32.701c3.158-11.099 7.303-21.207 12.435-30.323 5.527-9.117 11.645-16.45 18.356-21.999 7.106-5.946 15.001-9.514 23.686-10.703ZM1004.07 358.525c0-1.585-.39-2.774-1.18-3.567-.4-.793-1.19-.991-2.37-.595l-5.33.595c-1.579.396-2.763.991-3.553 1.784-.789.792-1.184 1.981-1.184 3.567-2.763 13.477-6.908 25.963-12.435 37.458-5.527 11.495-12.04 21.404-19.541 29.728-7.106 7.928-14.804 14.27-23.094 19.026-7.895 4.361-15.593 6.541-23.093 6.541-18.554 0-33.555-3.369-45.004-10.108-11.448-7.135-20.527-16.053-27.238-26.756-6.711-11.098-11.646-23.386-14.804-36.863-3.158-13.477-5.527-26.557-7.106-39.241 5.527.792 13.62 1.585 24.278 2.378 10.659.396 22.305.396 34.937 0 12.632-.396 25.66-1.784 39.082-4.162 13.816-2.378 26.252-5.946 37.305-10.702 11.448-5.153 20.923-12.09 28.423-20.81 7.895-8.721 12.633-19.621 14.212-32.702 1.579-19.026-.79-35.872-7.106-50.538-6.316-15.062-14.804-27.548-25.462-37.458-10.264-10.306-21.91-18.035-34.937-23.188-12.633-5.153-24.476-7.729-35.529-7.729-18.554 0-35.134 4.36-49.74 13.08-14.212 8.324-26.252 20.215-36.121 35.674-9.475 15.063-16.778 33.296-21.91 54.701-5.132 21.008-7.5 43.998-7.106 68.97.395 21.801 2.961 42.214 7.698 61.24 4.738 18.63 11.646 34.882 20.726 48.755 9.474 13.873 20.922 24.774 34.344 32.701 13.817 7.532 29.607 11.297 47.372 11.297 15.001 0 29.015-2.775 42.042-8.324 13.027-5.549 24.673-13.477 34.937-23.783 10.264-10.702 18.554-23.584 24.87-38.647 6.316-15.458 10.857-32.899 13.617-52.322Zm-187.708-36.268c-.395-7.532-.592-15.856-.592-24.972.395-9.117 1.184-17.045 2.368-23.783 1.185-9.91 3.553-20.612 7.106-32.107 3.948-11.495 9.08-21.999 15.396-31.512 6.316-9.91 13.817-18.234 22.501-24.972 9.08-6.738 19.344-10.108 30.792-10.108 9.474 0 18.357 2.973 26.647 8.919 8.29 5.549 15.396 12.882 21.317 21.999 5.922 9.117 10.264 19.224 13.027 30.323 3.158 10.702 4.145 21.008 2.961 30.918-2.369 10.305-6.711 18.828-13.027 25.566-6.316 6.739-13.817 12.09-22.502 16.053-8.685 3.964-18.356 6.937-29.015 8.919-10.264 1.585-20.33 2.775-30.2 3.567-9.474.397-18.553.595-27.238.595-8.29 0-14.804.198-19.541.595ZM1013.1 471.493c0 1.586.4 2.775 1.19 3.568.79.793 1.58 1.189 2.37 1.189h86.45c1.18 0 1.97-.396 2.37-1.189.79-.793 1.18-1.982 1.18-3.568v-5.945c0-1.586-.39-2.775-1.18-3.568-.4-1.189-.99-1.783-1.78-1.783-3.16-.397-6.91-.793-11.25-1.19-4.34-.792-7.5-3.567-9.47-8.323-1.98-4.361-3.16-10.901-3.56-19.621V281.826c0-6.739 1.38-15.657 4.15-26.756 3.16-11.098 7.5-21.999 13.03-32.701 5.52-11.099 11.84-20.612 18.94-28.539 7.5-8.324 15.6-13.081 24.28-14.27 8.69-1.189 16.38.594 23.1 5.351 7.1 4.757 13.02 11.495 17.76 20.215 4.74 8.324 8.29 18.432 10.66 30.323 2.76 11.892 4.14 24.378 4.14 37.458V423.928c.4 5.549 0 11.098-1.18 16.648-.79 5.153-2.57 9.711-5.33 13.675-2.76 3.567-6.91 5.549-12.43 5.946-1.19 0-2.18.396-2.97 1.189-.79.792-1.18 1.982-1.18 3.567v6.54c0 1.19.2 2.379.59 3.568.79.793 1.98 1.189 3.56 1.189h78.16c1.18 0 2.17-.396 2.96-1.189s1.18-1.982 1.18-3.568v-5.945c0-1.189-.39-2.18-1.18-2.973-.79-1.189-1.78-1.784-2.96-1.784-6.32-1.189-11.05-3.171-14.21-5.946-3.16-3.171-5.53-6.936-7.11-11.296-1.18-4.757-1.97-10.108-2.37-16.054V263.989c0-15.459-1.58-29.927-4.73-43.404-3.16-13.477-7.9-24.972-14.22-34.485-6.31-9.909-14.8-17.441-25.46-22.593-10.26-5.55-22.89-8.126-37.9-7.73-8.29.397-16.18 2.775-23.68 7.135-7.11 3.964-13.82 9.117-20.13 15.459a104.821 104.821 0 0 0-15.4 19.621c-4.34 7.134-7.7 13.873-10.07 20.215v-61.241c0-1.189-.39-1.982-1.18-2.378-.4-.793-.99-.991-1.78-.595l-53.29 27.945c-1.19.397-2.17 1.189-2.96 2.378-.4 1.19-.59 2.577-.59 4.162v8.324c0 1.586.19 2.775.59 3.568.79.793 1.97 1.189 3.55 1.189 3.16 0 6.32.396 9.48 1.189 3.15.793 5.52 3.766 7.1 8.919.79 2.378 1.38 8.324 1.78 17.837.39 9.513.79 20.81 1.18 33.89.4 13.081.59 27.35.59 42.809.4 15.063.6 29.53.6 43.404v60.646c.39 13.477-.6 23.584-2.96 30.323-1.98 6.738-4.35 11.495-7.11 14.269-2.76 2.775-5.92 4.162-9.47 4.162-3.16 0-5.93.199-8.29.595-1.19 0-2.18.595-2.97 1.784-.39.792-.59 1.982-.59 3.567v6.54ZM1493.98 476.25c1.18 0 1.97-.396 2.37-1.189.79-.793 1.18-1.982 1.18-3.568v-5.351c0-1.585-.39-2.774-1.18-3.567-.4-1.189-.99-1.784-1.78-1.784-3.55-.396-8.09-1.189-13.62-2.378-5.13-1.189-9.08-5.748-11.84-13.675-1.19-4.36-2.17-14.072-2.96-29.134-.79-15.062-1.19-31.512-1.19-49.349 0-17.837.2-34.882.59-51.133.4-16.648.6-28.341.6-35.08v-25.566c.39-13.477.59-29.332.59-47.566v-58.268c0-20.611-.2-40.43-.59-59.457V38.052c0-15.062-.4-26.16-1.19-33.295 0-1.982-.59-3.37-1.77-4.162-.79-.793-1.78-.793-2.97 0l-50.33 27.944c-.79.397-1.58 1.19-2.37 2.379s-1.18 2.576-1.18 4.162l.59 7.729c0 1.586.2 2.775.59 3.567.79.793 1.78 1.19 2.96 1.19 3.16-.397 6.12-.199 8.89.594 3.15.793 5.72 3.964 7.69 9.513 1.19 3.171 1.98 10.703 2.37 22.594.4 11.891.6 24.972.6 39.241.39 14.27.39 27.945 0 41.026v26.755c-4.74-7.531-10.07-13.675-15.99-18.431-5.92-4.757-11.85-8.522-17.77-11.297-5.92-2.775-11.64-4.558-17.17-5.351-5.53-1.189-10.46-1.784-14.8-1.784-17.77 0-33.16 4.955-46.19 14.864-12.63 9.513-23.29 21.999-31.98 37.458-8.29 15.459-14.41 32.9-18.35 52.322-3.95 19.423-5.92 38.647-5.92 57.673 0 24.18 1.77 46.575 5.32 67.187 3.56 20.611 9.48 38.449 17.77 53.511 8.68 15.062 19.93 26.557 33.75 34.485 13.82 7.928 30.79 11.099 50.93 9.513 7.5-.396 14.21-2.18 20.13-5.351 6.32-3.171 12.04-6.937 17.17-11.297 5.13-4.36 9.67-9.117 13.62-14.27 3.95-5.152 7.11-9.711 9.48-13.675 0 1.586-.2 4.757-.6 9.514v14.864c0 4.756.4 9.116 1.19 13.08 1.18 3.568 2.96 5.351 5.33 5.351l58.03.595Zm-127.31-305.609c9.07 0 17.36 2.18 24.87 6.541 7.5 4.36 14.01 10.9 19.54 19.62 5.52 8.721 10.06 19.621 13.62 32.702 3.55 12.684 5.72 27.548 6.51 44.592l-.59 71.349c0 19.422-2.17 36.268-6.52 50.538-3.94 14.27-9.08 26.161-15.39 35.674-6.32 9.117-13.42 16.054-21.32 20.81-7.89 4.36-15.4 6.54-22.5 6.54-7.9 0-15.79-2.576-23.69-7.729-7.89-5.153-15-13.08-21.31-23.783-5.93-11.098-10.86-24.773-14.81-41.025-3.95-16.648-5.92-36.269-5.92-58.862l.59-21.405c.79-29.332 3.75-52.917 8.88-70.754 5.53-17.837 11.85-31.512 18.95-41.025 7.11-9.909 14.41-16.251 21.91-19.026 7.9-3.171 13.62-4.757 17.18-4.757ZM1572.22 163.507c0-1.586-.59-2.775-1.78-3.568-.79-.793-1.77-.793-2.96 0l-50.33 24.377c-1.58.397-2.76 1.388-3.55 2.973-.79 1.189-1.19 2.775-1.19 4.757v8.324c0 1.982.4 3.567 1.19 4.756.79.793 1.97 1.19 3.55 1.19 5.53-.397 9.28 0 11.25 1.189 2.37 1.189 4.54 4.162 6.51 8.918.4 1.982.79 5.351 1.19 10.108.39 4.756.59 10.504.59 17.242V344.85c.39 14.27.59 28.936.59 43.998v29.729c0 5.549-.39 10.9-1.18 16.053-.4 4.757-1.19 8.72-2.37 11.891-2.37 4.361-4.94 7.334-7.7 8.919-2.76 1.586-5.53 2.775-8.29 3.567-2.37.397-4.74.793-7.1 1.19-1.98 0-3.36.594-4.15 1.783-.39.793-.59 1.784-.59 2.973v2.973c0 2.378.2 4.162.59 5.351l.59 1.189c1.19.793 2.17 1.189 2.96 1.189h90.6c.4-.396.79-.792 1.19-1.189l1.18-1.189v-10.702c-.39-1.189-1.78-1.982-4.14-2.378-1.98-.397-4.54-.793-7.7-1.19-2.77-.792-5.53-2.18-8.29-4.162-2.77-1.981-5.13-5.351-7.11-10.107-1.18-3.568-2.17-7.73-2.96-12.486-.39-5.153-.79-10.306-1.18-15.459v-15.459c.39-5.153.59-9.315.59-12.486V163.507Zm-23.09-44.593c3.94 0 7.5-.991 10.65-2.973a23.901 23.901 0 0 0 7.7-7.729c2.37-3.171 4.15-6.937 5.33-11.297 1.58-4.36 2.37-8.919 2.37-13.675 0-4.757-.79-9.315-2.37-13.675-1.18-4.36-2.96-8.126-5.33-11.297a23.901 23.901 0 0 0-7.7-7.73c-3.15-1.981-6.71-2.972-10.65-2.972-3.56 0-7.11.99-10.66 2.972-3.16 1.586-5.92 4.162-8.29 7.73-2.37 3.17-4.35 6.936-5.92 11.297-1.19 4.36-1.78 8.72-1.78 13.08 0 5.153.59 9.91 1.78 14.27 1.57 4.36 3.55 8.126 5.92 11.297 2.37 3.171 5.13 5.747 8.29 7.729 3.15 1.982 6.71 2.973 10.66 2.973ZM1696.18 476.25c1.58 0 2.96-.595 4.14-1.784 1.19-1.585 1.78-3.567 1.78-5.945v-5.352c0-1.585-.59-2.972-1.78-4.162-.79-1.189-1.77-1.783-2.96-1.783-3.95-.397-6.91-.793-8.88-1.189-1.98-.793-2.57-3.37-1.78-7.73 0-2.774 1.78-8.126 5.33-16.053 3.95-8.324 8.49-17.441 13.62-27.35 5.13-9.91 10.26-19.819 15.4-29.729 5.52-9.909 10.06-17.837 13.62-23.783 3.94 10.306 8.29 21.009 13.02 32.107 5.14 10.702 9.48 20.612 13.03 29.729 3.95 9.116 7.11 16.846 9.47 23.188 2.77 5.946 4.15 9.315 4.15 10.107.39 2.379-.2 4.361-1.78 5.946-1.18 1.189-3.15 2.18-5.92 2.973-2.76.793-5.72 1.387-8.88 1.784-3.16 0-6.32.198-9.47.594-.79 0-1.58.595-2.37 1.784-.4.793-.6 1.784-.6 2.973v8.918c0 1.586.2 2.775.6 3.568.79.793 1.77 1.189 2.96 1.189l102.44-.595c1.18 0 2.17-.594 2.96-1.783 1.18-1.189 1.78-2.577 1.78-4.162v-5.946c0-1.982-.6-3.369-1.78-4.162-.79-1.189-1.78-1.784-2.96-1.784-5.53-.396-11.25-.594-17.17-.594-5.53-.397-9.48-2.775-11.85-7.135-3.55-7.135-7.69-15.459-12.43-24.972-4.74-9.909-10.07-20.81-15.99-32.701-5.53-12.288-11.45-25.369-17.76-39.242-5.92-13.873-12.64-28.539-20.14-43.998 6.32-10.306 13.82-24.576 22.51-42.809 9.07-18.233 18.94-36.269 29.6-54.106 3.56-5.945 6.52-10.9 8.88-14.864 2.37-3.964 4.74-7.333 7.11-10.108 2.76-2.774 5.72-4.756 8.88-5.945 3.56-1.586 8.29-2.577 14.21-2.973 1.19 0 2.18-.595 2.96-1.784.79-1.189 1.19-2.775 1.19-4.756v-7.73c0-1.585-.4-2.775-1.19-3.567-.39-1.189-1.18-1.784-2.36-1.784h-75.8c-1.18 0-2.17.396-2.96 1.189-.39.793-.59 1.982-.59 3.568v10.107c0 1.982.39 3.568 1.18 4.757.79 1.189 1.98 1.783 3.56 1.783 4.34.397 8.48.595 12.43.595 4.34-.396 5.92 1.189 4.74 4.757 0 1.189-2.17 6.143-6.52 14.864-3.94 8.324-8.48 17.837-13.62 28.539a2465.925 2465.925 0 0 1-15.98 31.512c-5.53 10.306-9.67 18.036-12.44 23.189-2.37-5.153-5.52-12.09-9.47-20.81-3.56-9.117-7.31-18.432-11.25-27.945-3.95-9.513-7.7-18.828-11.25-27.945-3.56-9.117-6.12-16.45-7.7-21.999-.79-2.378.39-3.766 3.55-4.162 3.16-.396 6.71-.793 10.66-1.189 1.18 0 2.17-.396 2.96-1.189.79-1.189 1.18-2.775 1.18-4.757v-10.702c0-1.586-.39-2.775-1.18-3.567-.79-1.19-1.78-1.784-2.96-1.784h-85.27c-1.18 0-2.17.594-2.96 1.784-.79 1.189-1.18 2.576-1.18 4.162l-.6 10.702c0 1.585.4 2.973 1.19 4.162.79.793 1.77 1.189 2.96 1.189 7.5 0 13.03.991 16.58 2.973 3.55 1.982 7.1 4.756 10.66 8.324 3.16 2.378 6.71 7.927 10.66 16.648 3.94 8.72 8.48 19.422 13.62 32.106a3483.965 3483.965 0 0 0 17.17 41.62 1455.133 1455.133 0 0 0 20.13 45.782c-4.34 7.928-9.67 18.234-15.99 30.918a3487.85 3487.85 0 0 1-19.54 37.458c-6.31 12.287-12.43 23.386-18.35 33.295-5.93 9.91-10.86 16.45-14.81 19.621-3.55 2.379-6.51 4.162-8.88 5.351a41.387 41.387 0 0 1-5.92 2.973c-1.58.397-3.56.793-5.92 1.189-1.98 0-4.35.199-7.11.595-1.18 0-2.37.594-3.55 1.784-.79 1.189-1.19 2.576-1.19 4.162v5.945c.4 1.189.79 2.18 1.19 2.973.39.793.79 1.586 1.18 2.378.79.397 1.58.595 2.37.595h73.43ZM1948.78 31.512c0 1.19.2 2.18.59 2.973.79.793 1.58 1.19 2.37 1.19 2.77.792 5.73 1.387 8.89 1.783 3.55 0 6.71 1.189 9.47 3.567 3.16 1.982 5.72 5.55 7.7 10.703 1.97 4.756 2.96 11.89 2.96 21.404v353.174c0 9.513-1.19 16.648-3.55 21.405-2.37 4.36-5.33 7.531-8.89 9.513-3.15 1.982-6.51 2.973-10.06 2.973-3.16 0-5.53.396-7.11 1.189-.39.396-.79.991-1.18 1.783-.4.397-.6.991-.6 1.784v7.135c0 1.189.2 2.18.6 2.973.79.793 1.77 1.189 2.96 1.189h107.18c17.76 0 34.74-1.784 50.92-5.351 16.19-3.964 30.2-10.504 42.04-19.621 11.85-9.117 21.32-21.206 28.43-36.269 7.1-15.062 10.66-34.286 10.66-57.673 0-16.251-1.98-31.116-5.93-44.593-3.55-13.476-8.88-25.17-15.98-35.079-7.11-9.91-15.99-17.837-26.65-23.783-10.26-6.342-22.11-10.702-35.53-13.08 10.26-4.361 19.34-10.108 27.24-17.243 7.89-7.135 14.61-15.459 20.13-24.972 5.53-9.909 9.67-20.81 12.44-32.701 3.16-11.892 4.73-24.378 4.73-37.458 0-20.215-2.96-37.061-8.88-50.538-5.92-13.477-14.41-24.378-25.46-32.702-10.66-8.72-23.49-14.864-38.49-18.431-14.61-3.964-30.59-5.946-47.96-5.946H2022.8c-6.32-.396-13.03-.595-20.13-.595-6.71-.396-13.23-.594-19.54-.594h-17.18c-5.13 0-9.27.198-12.43.594-1.18 0-2.37.595-3.55 1.784-.79 1.19-1.19 2.577-1.19 4.162v5.351Zm67.51 224.747h13.02c4.74-.396 9.48-.594 14.22-.594 4.73-.397 9.47-.595 14.21-.595h13.02c15.4 0 28.43 2.973 39.09 8.919 11.05 5.945 19.73 13.873 26.05 23.783 6.71 9.513 11.65 20.413 14.8 32.701a140.628 140.628 0 0 1 4.74 36.269c0 6.342-.79 14.864-2.37 25.566-1.58 10.702-4.93 21.603-10.06 32.701-5.13 10.703-13.03 20.414-23.69 29.134-10.26 8.721-24.67 13.874-43.23 15.459-4.34.396-9.08.793-14.21 1.189h-45.59V256.259Zm0-221.18h52.11c14.21 0 25.85 3.172 34.93 9.514 9.08 5.945 15.99 13.873 20.73 23.782 4.74 9.514 7.89 20.018 9.47 31.513 1.98 11.495 2.77 22.791 2.37 33.89 0 11.891-1.18 23.386-3.55 34.485s-6.32 21.206-11.84 30.323c-5.14 8.72-12.04 16.252-20.73 22.594-8.68 5.945-19.15 9.909-31.38 11.891-3.95.397-8.29.595-13.03.595h-39.08V35.08Z" fill="currentColor"/></svg>