<svg viewBox="0 0 700 700" fill="none" xmlns="http://www.w3.org/2000/svg"><path d="M571.068 439.061c-21.753 14.46-43.507 26.948-63.943 37.465l46.145-189.953-95.585-3.287c-1.318 4.601-2.637 9.202-3.296 13.803-11.866 44.695-29.005 77.559-110.747 77.559-48.781 0-73.831-17.747-87.015-44.695l334.877-170.892C591.504 159.718 654.787 0 435.931 0S138.63 218.873 138.63 262.911c0 17.089-3.296 47.324 1.977 78.873L47 389.108v47.981l105.473-53.897c15.821 34.836 48.122 67.043 112.065 80.846 57.351 12.488 114.042-12.489 162.164-46.667-12.525 57.84-18.457 93.991-18.457 93.991L221.03 573.146C212.461 632.958 229.6 700 339.028 700s150.958-151.831 150.958-151.831l4.614-19.718c55.374-21.033 87.016-42.066 104.814-56.526l-28.346-32.864ZM243.443 245.822c0-69.014 78.446-202.442 187.215-202.442 108.768 0 56.032 122.254 56.032 122.254L245.421 288.545c-1.319-13.803-1.978-27.606-1.978-42.723Zm89.652 410.798c-26.368 0-25.709-70.329-25.709-70.329l89.652-27.606c-19.776 95.306-38.893 97.935-63.943 97.935Z" fill="currentColor"/></svg>