<svg viewBox="0 0 89 99" fill="currentColor" xmlns="http://www.w3.org/2000/svg">
<path d="M88.5459 76.64L88.7659 48.51L74.9559 48.4V49.26C81.4659 52.77 80.0759 58.16 79.9559 67.19L79.8759 78.47C73.0459 87.54 60.7159 92.11 49.6359 91.96C26.5159 91.64 7.84594 75.23 8.21594 49.1C8.58594 22.83 27.0559 4.05 50.0359 4.37C65.4959 4.59 74.7859 15.4 82.1459 27.82H82.966L82.8159 14.24L82.0059 13.43L75.1659 7.88C69.6059 3.7 61.0359 0.159999 50.0859 -6.23055e-07C21.0859 -0.400001 0.405944 20.25 0.00594384 48.98C-0.394056 77.71 19.4359 98.1 47.0759 98.49C60.8959 98.68 67.9559 93.66 77.9259 85.52L88.5459 76.65V76.64Z"/>
<path d="M44.9959 21.76C44.9859 23.3 44.9759 24.94 44.9659 26.51C44.9459 29.32 44.9259 32.14 44.9059 34.95L44.8459 42.99C44.8259 46.24 45.0959 49.81 43.4559 52.73C42.0459 55.25 39.2659 56.62 36.3759 56.56C34.8459 56.53 33.3959 56.35 31.9859 55.67C28.2759 53.88 27.1659 49.19 27.3159 45.44C27.3359 44.87 27.4059 44.27 27.5759 43.71C27.7559 43.12 28.0859 42.61 28.4359 42.11C28.4759 42.06 28.7959 41.71 28.7959 41.69L28.7259 41.57L19.8359 41.51L19.7659 41.63C20.5559 43.13 20.9959 44.62 21.2159 46.3C21.7159 50.22 23.0159 53.51 26.1959 55.99C28.8859 58.09 32.2859 59.27 35.6759 59.47C37.2059 59.56 38.7559 59.45 40.2559 59.09C40.5359 59.02 40.8159 58.95 41.0859 58.87C41.9559 58.61 42.8159 58.27 43.6259 57.86C44.3859 57.48 45.1159 57.05 45.8159 56.57C46.0959 56.37 46.3759 56.17 46.6459 55.96C49.0159 54.1 51.5659 50.76 51.5959 47.59C51.6259 43.98 51.6459 40.37 51.6759 36.76C51.7059 31.79 51.7459 26.81 51.7759 21.84C51.7959 19.34 51.9359 16.86 53.9959 15.11L53.9259 14.99L42.9259 14.91L42.8559 15.03C43.7059 15.77 44.2259 16.91 44.5659 17.96C44.9559 19.21 44.9859 20.49 44.9759 21.78L44.9959 21.76Z"/>
<path d="M68.6959 77.32L68.6459 76.7C68.6459 76.7 68.3359 73.08 68.4759 71.08C68.5159 70.49 68.6259 69.9 68.8559 69.36C69.0459 68.91 69.3459 68.51 69.6059 68.09L69.5359 67.97L64.2359 67.93L64.1659 68.03L64.3459 68.49C64.3459 68.49 65.4059 71.28 64.4859 72.66C64.0959 73.24 63.0259 73.93 61.4859 74.15C60.3159 74.32 58.0159 74.32 55.7459 72.41C53.9759 70.92 53.0559 68.83 53.2259 66.66C53.3859 64.65 54.4859 62.77 56.0759 61.56C58.0159 60.08 60.4559 59.98 62.7359 60.67C64.5559 61.22 65.9159 62.13 67.4759 63.24L67.5459 63.16L67.5859 57.8L67.5159 57.72C66.2359 58.13 65.4759 57.71 64.2859 57.22C63.7759 57.01 63.2559 56.8 62.7259 56.66C61.3459 56.31 59.7859 56.28 58.2259 56.56C55.0359 57.14 52.2559 58.95 50.7859 61.4C48.3359 65.49 48.6359 70.64 51.5159 73.92C54.3559 77.16 57.2059 78.07 59.5559 78.09C61.6859 78.1 63.4159 77.39 64.3859 76.98C65.3359 76.58 66.4159 76.49 67.4059 76.78C67.6059 76.84 67.8159 76.91 68.0059 77.01C68.2059 77.12 68.4159 77.26 68.5959 77.41C68.6359 77.38 68.6659 77.35 68.7059 77.31L68.6959 77.32Z"/>
</svg>
