<svg width="159" height="159" viewBox="0 0 159 159" fill="none" xmlns="http://www.w3.org/2000/svg">
<style>
    path { fill: #011936; }
    @media (prefers-color-scheme: dark) {
      path { fill: #ffffff; }
    }
</style>
<path d="M135.392 99.7296C130.436 103.014 125.48 105.851 120.825 108.239L131.337 65.093L109.561 64.3465C109.261 65.3915 108.961 66.4366 108.81 67.4817C106.107 77.6338 102.203 85.0986 83.5805 85.0986C72.4672 85.0986 66.7604 81.0676 63.7569 74.9465L140.048 36.1296C140.048 36.2789 154.465 0 104.605 0C54.7461 0 36.8749 49.7155 36.8749 59.7183C36.8749 63.6 36.124 70.4676 37.3254 77.6338L16 88.3831V99.2817L40.0286 87.0394C43.6329 94.9521 50.9917 102.268 65.559 105.403C78.6246 108.239 91.5399 102.566 102.503 94.8028C99.6496 107.941 98.298 116.152 98.298 116.152L55.6472 130.186C53.6949 143.772 57.5995 159 82.5292 159C107.459 159 116.92 124.513 116.92 124.513L117.971 120.034C130.586 115.256 137.795 110.479 141.85 107.194L135.392 99.7296ZM60.7533 55.8366C60.7533 40.1606 78.6246 9.85352 103.404 9.85352C128.184 9.85352 116.169 37.6225 116.169 37.6225L61.2038 65.5408C60.9035 62.4056 60.7533 59.2704 60.7533 55.8366ZM81.1776 149.146C75.1704 149.146 75.3206 133.172 75.3206 133.172L95.7449 126.901C91.2396 148.549 86.8844 149.146 81.1776 149.146Z" fill="currentColor"/>
</svg>
