<svg width="211" height="211" viewBox="0 0 211 211" fill="none" xmlns="http://www.w3.org/2000/svg">
<style>
    path { fill: #011936; }
    @media (prefers-color-scheme: dark) {
      path { fill: #ffffff; }
    }
</style>
<path d="M157.392 125.73C152.436 129.014 147.48 131.851 142.825 134.239L153.337 91.093L131.561 90.3465C131.261 91.3915 130.961 92.4366 130.81 93.4817C128.107 103.634 124.203 111.099 105.58 111.099C94.4672 111.099 88.7604 107.068 85.7569 100.946L162.048 62.1296C162.048 62.2789 176.465 26 126.605 26C76.7461 26 58.8749 75.7155 58.8749 85.7183C58.8749 89.6 58.124 96.4676 59.3254 103.634L38 114.383V125.282L62.0286 113.039C65.6329 120.952 72.9917 128.268 87.559 131.403C100.625 134.239 113.54 128.566 124.503 120.803C121.65 133.941 120.298 142.152 120.298 142.152L77.6472 156.186C75.6949 169.772 79.5995 185 104.529 185C129.459 185 138.92 150.513 138.92 150.513L139.971 146.034C152.586 141.256 159.795 136.479 163.85 133.194L157.392 125.73ZM82.7533 81.8366C82.7533 66.1606 100.625 35.8535 125.404 35.8535C150.184 35.8535 138.169 63.6225 138.169 63.6225L83.2038 91.5408C82.9035 88.4056 82.7533 85.2704 82.7533 81.8366ZM103.178 175.146C97.1704 175.146 97.3206 159.172 97.3206 159.172L117.745 152.901C113.24 174.549 108.884 175.146 103.178 175.146Z" fill="currentColor"/>
</svg>
