<svg xmlns="http://www.w3.org/2000/svg" width="18" height="18" viewBox="0 0 18 18"><g class="nc-icon-wrapper" fill="#F7F7F7"><path d="M15,14c-.414,0-.75-.336-.75-.75v-1.75h-4c-.414,0-.75-.336-.75-.75v-.109c0-.171,.059-.337,.166-.471l4.75-5.891c.201-.247,.536-.342,.833-.236,.3,.105,.5,.389,.5,.707v5.25h.94c.414,0,.75,.336,.75,.75s-.336,.75-.75,.75h-.94v1.75c0,.414-.336,.75-.75,.75Zm-4.75-3.359h0Zm1.48-.641h2.52v-3.125l-2.52,3.125Z" data-color="color-2"></path><path d="M7.75,4c-.414,0-.75,.336-.75,.75v3.5H2.5v-3.5c0-.414-.336-.75-.75-.75s-.75,.336-.75,.75V13.25c0,.414,.336,.75,.75,.75s.75-.336,.75-.75v-3.5H7v3.5c0,.414,.336,.75,.75,.75s.75-.336,.75-.75V4.75c0-.414-.336-.75-.75-.75Z"></path></g></svg>