<svg xmlns="http://www.w3.org/2000/svg" width="18" height="18" viewBox="0 0 18 18"><g class="nc-icon-wrapper" fill="#F7F7F7"><path d="M7.25,4c-.414,0-.75,.336-.75,.75v3.5H2v-3.5c0-.414-.336-.75-.75-.75s-.75,.336-.75,.75V13.25c0,.414,.336,.75,.75,.75s.75-.336,.75-.75v-3.5H6.5v3.5c0,.414,.336,.75,.75,.75s.75-.336,.75-.75V4.75c0-.414-.336-.75-.75-.75Z"></path><path d="M16.5,14h-6c-.208,0-.406-.086-.548-.238-.142-.152-.214-.355-.2-.563,.164-2.399,1.987-3.175,3.452-3.798,1.738-.739,2.594-1.556,2.544-2.426-.077-1.338-1.644-1.466-2.123-1.474-1.168-.028-2.129,.619-2.401,1.626-.108,.4-.521,.634-.919,.529-.4-.108-.637-.52-.529-.919,.449-1.666,2.009-2.773,3.873-2.735,2.086,.033,3.498,1.167,3.596,2.888,.09,1.569-1.072,2.879-3.454,3.892-1.277,.543-2.04,.952-2.366,1.72h5.074c.414,0,.75,.336,.75,.75s-.336,.75-.75,.75Z" data-color="color-2"></path></g></svg>