<svg xmlns="http://www.w3.org/2000/svg" width="18" height="18" viewBox="0 0 18 18"><g class="nc-icon-wrapper" fill="#F7F7F7"><path d="M7.75,4c-.414,0-.75,.336-.75,.75v3.5H2.5v-3.5c0-.414-.336-.75-.75-.75s-.75,.336-.75,.75V13.25c0,.414,.336,.75,.75,.75s.75-.336,.75-.75v-3.5H7v3.5c0,.414,.336,.75,.75,.75s.75-.336,.75-.75V4.75c0-.414-.336-.75-.75-.75Z"></path><path d="M13.853,7c-.806,0-1.544,.26-2.149,.687,.115-.436,.274-.837,.486-1.16,.761-1.165,2.446-1.272,3.538-.644,.36,.205,.817,.083,1.024-.276,.206-.359,.082-.818-.276-1.024-1.68-.964-4.276-.812-5.542,1.124-1.017,1.556-1.233,4.136-.505,6.003,.008,.021,.022,.036,.032,.055,.53,1.306,1.846,2.237,3.392,2.237,2.011,0,3.647-1.57,3.647-3.5s-1.637-3.5-3.647-3.5Zm0,5.5c-1.185,0-2.147-.897-2.147-2s.963-2,2.147-2,2.147,.897,2.147,2-.963,2-2.147,2Z" data-color="color-2"></path></g></svg>