<svg xmlns="http://www.w3.org/2000/svg" width="18" height="18" viewBox="0 0 18 18"><g class="nc-icon-wrapper" fill="#F7F7F7"><path d="M7.75,4c-.414,0-.75,.336-.75,.75v3.5H2.5v-3.5c0-.414-.336-.75-.75-.75s-.75,.336-.75,.75V13.25c0,.414,.336,.75,.75,.75s.75-.336,.75-.75v-3.5H7v3.5c0,.414,.336,.75,.75,.75s.75-.336,.75-.75V4.75c0-.414-.336-.75-.75-.75Z"></path><path d="M13.335,14c-.107,0-.214-.004-.321-.013-1.267-.1-2.38-.772-3.135-1.891-.232-.343-.141-.81,.202-1.041,.342-.231,.81-.142,1.041,.202,.634,.939,1.443,1.19,2.011,1.235,.804,.062,1.538-.24,1.849-.573,.585-.627,.786-1.76,.004-2.624-.826-.91-2.485-.929-3.947-.042-.241,.145-.543,.144-.783-.004-.24-.148-.376-.418-.353-.699l.317-3.86c.032-.389,.357-.688,.748-.688h4.746c.414,0,.75,.336,.75,.75s-.336,.75-.75,.75h-4.055l-.155,1.887c1.752-.594,3.522-.282,4.594,.901,1.215,1.341,1.206,3.342-.02,4.655-.608,.651-1.68,1.057-2.743,1.057Z" data-color="color-2"></path></g></svg>