<svg xmlns="http://www.w3.org/2000/svg" width="18" height="18" viewBox="0 0 18 18"><g class="nc-icon-wrapper" fill="#F7F7F7"><path d="M8.75,4c-.414,0-.75,.336-.75,.75v3.5H3.5v-3.5c0-.414-.336-.75-.75-.75s-.75,.336-.75,.75V13.25c0,.414,.336,.75,.75,.75s.75-.336,.75-.75v-3.5h4.5v3.5c0,.414,.336,.75,.75,.75s.75-.336,.75-.75V4.75c0-.414-.336-.75-.75-.75Z"></path><path d="M14.75,14c-.414,0-.75-.336-.75-.75V6.639c-.548,.409-1.261,.786-2.149,.956-.404,.073-.799-.189-.877-.596-.078-.407,.189-.799,.596-.877,1.706-.326,2.521-1.728,2.529-1.742,.168-.296,.512-.442,.844-.354,.329,.087,.558,.385,.558,.725V13.25c0,.414-.336,.75-.75,.75Z" data-color="color-2"></path></g></svg>