<svg xmlns="http://www.w3.org/2000/svg" width="18" height="18" viewBox="0 0 18 18"><g class="nc-icon-wrapper" fill="#F7F7F7"><path d="M14.25,2H6.75c-1.517,0-2.75,1.233-2.75,2.75v5.5c0,1.517,1.233,2.75,2.75,2.75h7.5c1.517,0,2.75-1.233,2.75-2.75V4.75c0-1.517-1.233-2.75-2.75-2.75Zm-2.039,6.017l-2.296,1.385c-.402,.242-.915-.047-.915-.517v-2.771c0-.469,.513-.759,.915-.517l2.296,1.385c.389,.235,.389,.799,0,1.033Z"></path><path d="M12.25,16H3.75c-1.517,0-2.75-1.233-2.75-2.75V6.75c0-.414,.336-.75,.75-.75s.75,.336,.75,.75v6.5c0,.689,.561,1.25,1.25,1.25H12.25c.414,0,.75,.336,.75,.75s-.336,.75-.75,.75Z" data-color="color-2"></path></g></svg>