<svg xmlns="http://www.w3.org/2000/svg" width="18" height="18" viewBox="0 0 18 18"><g class="nc-icon-wrapper" fill="#F7F7F7"><path d="M9.08,16.5c-3.268,0-4.496-1.776-4.951-3.267-.121-.396,.102-.815,.499-.936,.392-.122,.815,.102,.936,.499,.459,1.504,1.577,2.205,3.517,2.205,1.061,0,2.023-.363,2.642-.997,.462-.474,.698-1.072,.682-1.729-.006-.255-.045-.49-.115-.701-.131-.393,.081-.818,.474-.949,.393-.131,.818,.082,.949,.474,.117,.352,.182,.735,.192,1.139,.026,1.071-.357,2.043-1.108,2.813-.899,.921-2.253,1.449-3.715,1.449Z"></path><path d="M9.674,9.75c-.055,0-.111-.006-.167-.019-.227-.052-.448-.095-.658-.132-3.404-.608-4.277-2.381-4.41-3.762-.107-1.109,.193-2.088,.869-2.831,1.329-1.463,3.526-1.506,3.772-1.506,1.19,0,3.343,.368,4.385,2.834,.161,.381-.018,.821-.399,.983-.381,.161-.822-.018-.983-.399-.538-1.273-1.548-1.918-3.003-1.918-.602,0-1.934,.212-2.663,1.014-.394,.434-.552,.982-.485,1.679,.045,.468,.183,1.894,3.18,2.429,.231,.041,.477,.089,.729,.146,.404,.092,.656,.495,.564,.898-.08,.348-.389,.583-.731,.583Z"></path><path d="M16,9.75H2c-.414,0-.75-.336-.75-.75s.336-.75,.75-.75h14c.414,0,.75,.336,.75,.75s-.336,.75-.75,.75Z" data-color="color-2"></path></g></svg>