<svg xmlns="http://www.w3.org/2000/svg" width="18" height="18" viewBox="0 0 18 18"><g class="nc-icon-wrapper" fill="#F7F7F7"><path d="m10.498,5.999c-.211,0-.422-.089-.57-.262l-2.247-2.624c-.065-.076-.149-.115-.19-.087-.043,0-.123.011-.188.085l-2.316,2.633c-.272.311-.748.342-1.058.068-.311-.273-.342-.747-.068-1.058l2.316-2.633c.335-.381.841-.619,1.325-.595.508.003.988.226,1.318.611l2.248,2.624c.269.314.232.788-.082,1.058-.141.121-.315.18-.487.18Z" stroke-width="0" data-color="color-2"></path><path d="m13.577,5.999c-.211,0-.422-.089-.57-.262l-2.135-2.492c-.269-.314-.232-.788.082-1.058s.789-.232,1.058.082l2.135,2.492c.269.314.232.788-.082,1.058-.141.121-.315.18-.487.18Z" stroke-width="0" data-color="color-2"></path><path d="m14.121,4.732c-.142-.149-.338-.234-.544-.234H4.423c-.206,0-.402.084-.544.234-.142.149-.216.35-.205.555l.477,9.106c.077,1.461,1.283,2.606,2.746,2.606h4.205c1.463,0,2.669-1.145,2.746-2.606l.477-9.106c.011-.205-.063-.406-.205-.555Zm-6.708,9.267c-.013,0-.025,0-.038,0-.397,0-.729-.312-.749-.712l-.25-5c-.021-.414.298-.766.711-.787.42-.015.766.298.787.711l.25,5c.021.414-.298.766-.711.787Zm3.961-.711c-.02.401-.352.712-.749.712-.013,0-.025,0-.038,0-.414-.021-.732-.373-.711-.787l.25-5c.021-.414.384-.729.787-.711.414.021.732.373.711.787l-.25,5Z" stroke-width="0"></path></g></svg>