<svg xmlns="http://www.w3.org/2000/svg" width="12" height="12" viewBox="0 0 12 12"><g class="nc-icon-wrapper" fill="#F7F7F7"><circle cx="1.5" cy="1.75" r="1.5" stroke-width="0"></circle><path d="m11.25,1h-6.25c-.414,0-.75.336-.75.75s.336.75.75.75h6.25c.414,0,.75-.336.75-.75s-.336-.75-.75-.75Z" stroke-width="0"></path><circle cx="1.5" cy="6" r="1.5" stroke-width="0" data-color="color-2"></circle><path d="m11.25,5.25h-6.25c-.414,0-.75.336-.75.75s.336.75.75.75h6.25c.414,0,.75-.336.75-.75s-.336-.75-.75-.75Z" stroke-width="0" data-color="color-2"></path><circle cx="1.5" cy="10.25" r="1.5" stroke-width="0"></circle><path d="m11.25,9.5h-6.25c-.414,0-.75.336-.75.75s.336.75.75.75h6.25c.414,0,.75-.336.75-.75s-.336-.75-.75-.75Z" stroke-width="0"></path></g></svg>