<svg xmlns="http://www.w3.org/2000/svg" width="18" height="18" viewBox="0 0 18 18"><g class="nc-icon-wrapper" fill="#F7F7F7"><path d="M15.75,9.75h-7.5c-.414,0-.75-.336-.75-.75s.336-.75,.75-.75h7.5c.414,0,.75,.336,.75,.75s-.336,.75-.75,.75Z"></path><path d="M15.75,4.5h-7.5c-.414,0-.75-.336-.75-.75s.336-.75,.75-.75h7.5c.414,0,.75,.336,.75,.75s-.336,.75-.75,.75Z"></path><circle cx="3.75" cy="9" r="1.75" data-color="color-2"></circle><circle cx="3.75" cy="3.75" r="1.75" data-color="color-2"></circle><circle cx="3.75" cy="14.25" r="1.75" data-color="color-2"></circle><path d="M15.75,15h-7.5c-.414,0-.75-.336-.75-.75s.336-.75,.75-.75h7.5c.414,0,.75,.336,.75,.75s-.336,.75-.75,.75Z"></path></g></svg>